{"accessors" : [{"bufferView" : 0, "byteOffset" : 0, "componentType" : 5123, "count" : 2808, "type" : "SCALAR", "max" : [2431], "min" : [0]}, {"bufferView" : 1, "byteOffset" : 0, "componentType" : 5126, "count" : 2432, "type" : "VEC3", "max" : [24.569425582885742, 24.568931579589844, 4.067486763000488], "min" : [-24.569425582885742, -24.568931579589844, -4.067486763000488], "name" : "POSITION"}, {"bufferView" : 1, "byteOffset" : 12, "componentType" : 5126, "count" : 2432, "type" : "VEC2", "max" : [0.9927446842193604, 0.9880844354629517], "min" : [0.010684460401535034, 0.006659209728240967], "name" : "TEXCOORD_0"}], "asset" : {"generator" : "Aspose.3D 24.1.0", "version" : "2.0"}, "buffers" : [{"uri" : "data:application/octet-stream;base64,", "byteLength" : 61784}], "bufferViews" : [{"buffer" : 0, "byteOffset" : 0, "byteLength" : 5616, "target" : 34963}, {"buffer" : 0, "byteOffset" : 5620, "byteLength" : 56160, "byteStride" : 20, "target" : 34962}], "images" : [{"uri" : "psionic.jpg"}], "materials" : [{"name" : "fighter1", "pbrMetallicRoughness" : {"baseColorFactor" : [1, 1, 1, 1], "baseColorTexture" : {"index" : 0, "texCoord" : 0}, "metallicFactor" : 1, "roughnessFactor" : 1}, "emissiveFactor" : [0, 0, 0], "alphaMode" : "OPAQUE", "doubleSided" : false}], "meshes" : [{"primitives" : [{"attributes" : {"POSITION" : 1, "TEXCOORD_0" : 2}, "indices" : 0, "material" : 0, "mode" : 4}], "name" : "ship"}], "nodes" : [{"mesh" : 0, "name" : "ship"}], "samplers" : [{"magFilter" : 9729, "minFilter" : 9729, "wrapS" : 10497, "wrapT" : 10497}], "scene" : 0, "scenes" : [{"nodes" : [0]}], "textures" : [{"sampler" : 0, "source" : 0, "name" : ""}]}